<?xml version="1.0" encoding="iso-8859-1"?>
<!-- Generator: Adobe Illustrator 19.0.0, SVG Export Plug-In . SVG Version: 6.00 Build 0)  -->
<svg version="1.1" id="Capa_1" xmlns="http://www.w3.org/2000/svg" xmlns:xlink="http://www.w3.org/1999/xlink" x="0px" y="0px"
	 viewBox="0 0 511.999 511.999" style="enable-background:new 0 0 511.999 511.999;" xml:space="preserve">
	 <defs>
          <style type="text/css"><![CDATA[
            g{
              	cursor: pointer;
                fill: #ED6185;
            }
          ]]></style>
      </defs>
<g>
	<g>
		<g>
			<path d="M505.411,255.917c7.554-8.006,6.533-15.829,6.533-26.427c0-13.191-10.731-23.923-23.923-23.923h-51.028
				c-13.191,0-23.925,10.732-23.925,23.923c0,10.601-0.378,13.584,1.658,18.758H258.678v-30.062h96.304
				c4.155,0,7.521-3.368,7.521-7.521v-52.018h16.625c13.191,0,23.923-10.732,23.923-23.922c0-10.394,1.106-18.332-6.533-26.427
				c7.554-8.006,6.533-15.829,6.533-26.427c0-13.191-10.731-23.923-23.923-23.923h-51.03c-13.191,0-23.923,10.732-23.923,23.923
				c0,10.395-1.106,18.332,6.533,26.427c-7.554,8.006-6.533,15.829-6.533,26.427c0,13.19,10.731,23.922,23.923,23.922h19.362v44.496
				h-88.783V97.366c0-4.154-3.368-7.521-7.521-7.521c-35.073,0-68.123,16.373-89.456,44.06
				c-41.734-9.628-81.914,19.724-86.173,61.574c-38.634,13.054-67.813,46.659-75.025,86.982c-0.731,4.089,1.99,7.997,6.079,8.728
				c4.088,0.731,7.998-1.99,8.728-6.08c6.523-36.464,33.785-66.593,69.452-76.754c3.164-0.902,5.375-3.755,5.458-7.044
				c0.95-37.717,37.435-62.552,72.237-51.623c3.132,0.984,6.542-0.179,8.42-2.871c16.882-24.183,43.674-39.39,72.755-41.639
				l0.002,295.118h-46.994c-4.155,0-7.521,3.368-7.521,7.521c0,4.154,3.367,7.521,7.521,7.521h54.516
				c4.154,0,7.521-3.368,7.521-7.521v-98.96h88.783v44.495h-19.362c-13.191,0-23.923,10.732-23.923,23.923
				c0,10.394-1.106,18.332,6.533,26.427c-7.554,8.006-6.533,15.829-6.533,26.426c0,13.191,10.731,23.924,23.923,23.924h51.03
				c13.191,0,23.923-10.732,23.923-23.924c0-10.394,1.106-18.332-6.533-26.426c7.554-8.006,6.533-15.829,6.533-26.427
				c0-13.191-10.731-23.923-23.923-23.923h-16.625v-52.017c0-4.154-3.367-7.521-7.521-7.521h-96.304v-30.521h156.164
				c-2.178,5.326-1.774,8.494-1.774,19.051c0,13.191,10.732,23.923,23.925,23.923h51.028c13.191,0,23.923-10.732,23.923-23.923
				C511.944,271.981,513.051,264.011,505.411,255.917z M319.22,81.875c0-4.897,3.984-8.88,8.88-8.88h51.03
				c4.897,0,8.88,3.984,8.88,8.88v10.024c0,4.897-3.984,8.88-8.88,8.88H328.1c-4.897,0-8.88-3.984-8.88-8.88V81.875z M328.1,143.607
				c-4.897,0-8.88-3.983-8.88-8.879v-10.024c0-4.897,3.984-8.88,8.88-8.88h51.03c4.897,0,8.88,3.984,8.88,8.88v10.024
				c0,4.896-3.984,8.879-8.88,8.879H328.1z M388.009,430.128c0,4.897-3.984,8.881-8.88,8.881h-51.03c-4.897,0-8.88-3.984-8.88-8.881
				v-10.024c0-4.897,3.984-8.88,8.88-8.88h51.03c4.897,0,8.88,3.984,8.88,8.88V430.128z M379.129,368.395
				c4.897,0,8.88,3.984,8.88,8.88v10.024c0,4.897-3.984,8.88-8.88,8.88h-51.03c-4.897,0-8.88-3.984-8.88-8.88v-10.024
				c0-4.897,3.984-8.88,8.88-8.88H379.129z M496.901,282.344c0,4.897-3.984,8.88-8.88,8.88h-51.028c-4.898,0-8.882-3.984-8.882-8.88
				V272.32c0-4.896,3.984-8.879,8.882-8.879h51.028c4.897,0,8.88,3.983,8.88,8.879V282.344z M496.901,239.516
				c0,4.897-3.984,8.881-8.88,8.881h-51.028c-4.898,0-8.882-3.984-8.882-8.881v-10.023c0-4.897,3.984-8.88,8.882-8.88h51.028
				c4.897,0,8.88,3.984,8.88,8.88V239.516z"/>
			<path d="M161.541,400.295h-49.923c-48.515,0-89.169-34.728-96.666-82.574c-0.642-4.104-4.485-6.912-8.594-6.267
				c-4.104,0.644-6.91,4.492-6.266,8.595c8.472,54.076,55.292,95.287,111.524,95.288c28.288,0.001,16.905,0.001,49.925,0
				c4.155,0,7.521-3.368,7.521-7.521C169.062,403.663,165.696,400.295,161.541,400.295z"/>
		</g>
	</g>
</g>
<g>
</g>
<g>
</g>
<g>
</g>
<g>
</g>
<g>
</g>
<g>
</g>
<g>
</g>
<g>
</g>
<g>
</g>
<g>
</g>
<g>
</g>
<g>
</g>
<g>
</g>
<g>
</g>
<g>
</g>
</svg>
